<svg t="1682497770868" class="icon" viewBox="0 0 1062 1024" version="1.1" xmlns="http://www.w3.org/2000/svg" p-id="5805"
  width="200" height="200">
  <path
    d="M176.231884 356.173913q37.101449 0 69.565217 13.913044t56.579711 37.101449q24.115942 23.188406 38.028985 55.652174T354.318841 530.550725q0 77.913043-51.942029 127.072463T176.231884 706.782609q-35.246377 0-66.782609-12.985508t-55.652174-37.101449q-24.115942-24.115942-38.028985-56.57971T1.855072 530.550725q0-35.246377 13.913044-67.710145t38.028985-55.652174q24.115942-23.188406 55.652174-37.101449t66.782609-13.913044m634.434783 0q35.246377 0 66.782608 13.913044t55.652174 37.101449q24.115942 23.188406 38.028986 55.652174T985.043478 530.550725q0 37.101449-13.913043 69.565217T933.101449 656.695652q-24.115942 24.115942-55.652174 37.101449t-66.782608 12.985508q-74.202899 0-126.144928-49.159421T632.57971 530.550725q0-35.246377 13.913044-67.710145t38.028985-55.652174q24.115942-23.188406 56.57971-37.101449T810.666667 356.173913M495.304348 671.536232q35.246377 0 66.782609 13.913043t55.652173 38.028986q24.115942 24.115942 37.10145 56.57971t12.985507 69.565217q0 35.246377-12.985507 66.782609t-37.10145 55.652174q-24.115942 24.115942-55.652173 38.028986t-66.782609 13.913043q-37.101449 0-69.565218-13.913043T369.15942 972.057971q-24.115942-24.115942-37.101449-55.652174t-12.985507-66.782609q0-74.202899 49.15942-126.144927t127.072464-51.942029m0-278.26087q-77.913043 0-127.072464-51.942029T319.072464 215.188406q0-35.246377 12.985507-66.782609t37.101449-55.652174q24.115942-24.115942 56.57971-38.028985T495.304348 40.811594q35.246377 0 66.782609 13.913044T617.73913 92.753623q24.115942 24.115942 37.10145 55.652174t12.985507 66.782609q0 37.101449-12.985507 69.565217T617.73913 341.333333q-24.115942 24.115942-55.652173 38.028986t-66.782609 13.913043m0-280.115942q-46.376812 0-76.985507 29.68116T387.710145 215.188406q0 44.521739 30.608696 75.130435T495.304348 320.927536q42.666667 0 73.275362-30.608695T599.188406 215.188406q0-42.666667-30.608696-72.347826T495.304348 113.15942z"
    p-id="5806"></path>
</svg>