<svg t="1686128740359" class="icon" viewBox="0 0 1024 1024" version="1.1" xmlns="http://www.w3.org/2000/svg"
  p-id="10044" width="200" height="200">
  <path
    d="M645.632 337.408c15.36 46.08 35.84 82.432 71.68 118.272 30.72-30.72 51.2-72.192 66.56-118.272h-138.24z m-338.944 257.024H440.32L373.76 414.72c-0.512-0.512-67.072 179.712-67.072 179.712z"
    p-id="10045"></path>
  <path
    d="M820.224 100.864H203.776c-56.32 0-102.912 46.08-102.912 102.912v616.96c0 56.32 46.08 102.912 102.912 102.912h616.448c56.32 0 102.912-46.08 102.912-102.912V203.776c-0.512-56.832-41.472-102.912-102.912-102.912zM568.32 763.904c-10.24 10.24-20.48 10.24-30.72 10.24-5.12 0-15.36 0-20.48-5.12s-10.24 0-10.24-5.12-5.12-10.24-10.24-20.48-5.12-15.36-10.24-25.6l-20.48-56.32H286.208l-20.48 56.32c-10.24 20.48-15.36 35.84-20.48 46.08s-15.36 10.24-30.72 10.24c-10.24 0-20.48-5.12-30.72-10.24-10.24-10.24-15.36-15.36-15.36-25.6 0-5.12 0-10.24 5.12-20.48s5.12-15.36 10.24-25.6L296.96 404.48c5.12-10.24 5.12-20.48 10.24-30.72s10.24-20.48 15.36-25.6 10.24-15.36 20.48-20.48 20.48-5.12 30.72-5.12 20.48 0 30.72 5.12 15.36 10.24 20.48 20.48c5.12 5.12 10.24 15.36 15.36 25.6s10.24 20.48 15.36 35.84l113.152 282.624c10.24 20.48 15.36 35.84 15.36 46.08-5.632 5.12-10.752 15.36-15.872 25.6z m282.624-200.704c-56.32-20.48-97.792-46.08-133.632-77.312-35.84 35.84-81.92 61.44-138.752 77.312l-15.36-25.6c56.32-15.36 102.912-35.84 138.752-72.192-35.84-35.84-66.56-82.432-76.8-133.632h-51.2v-20.48h138.752c-10.24-15.36-20.48-35.84-30.72-51.2l15.36-5.12c10.24 15.36 25.6 35.84 35.84 56.32h128.512v25.6h-51.2c-15.36 51.2-40.96 97.792-71.68 128.512 35.84 30.72 76.8 56.32 133.632 72.192l-21.504 25.6z"
    p-id="10046"></path>
</svg>